<svg xmlns="http://www.w3.org/2000/svg" xmlns:xlink="http://www.w3.org/1999/xlink" viewBox="0 0 167.95 186.24"><defs><style>.cls-1{fill:url(#linear-gradient);}.cls-2{fill:#00cfff;}</style><linearGradient id="linear-gradient" y1="95.9" x2="160.02" y2="95.9" gradientUnits="userSpaceOnUse"><stop offset="0" stop-color="#0057ff"/><stop offset="1" stop-color="#00cfff"/></linearGradient></defs><title>Asset 1</title><g id="Layer_2" data-name="Layer 2"><g id="Layer_1-2" data-name="Layer 1"><path class="cls-1" d="M160,96.78q0,37.56-22.55,63.51t-55.32,26q-34.77,0-58.46-26.33T0,95Q0,55.71,22.81,30.63T81.14,5.56q33.52,0,56.2,26.21T160,96.78ZM131.8,98.05q0-46.26-18.9-72-11.85-16.17-33-16.18-20.16,0-31.24,12.38Q28.23,45,28.22,96.28q0,40.69,14.24,63.19T82.4,182q23.94,0,36-21.23Q131.79,137.23,131.8,98.05Z"/><circle class="cls-2" cx="156.45" cy="11.5" r="11.5"/></g></g></svg>